<svg width="74" height="109" viewBox="0 0 74 109" fill="none" xmlns="http://www.w3.org/2000/svg">
<g id="Logo 1" clip-path="url(#clip0_2532_3099)">
<path id="Vector" d="M27.9637 0.301489C26.7532 2.77709 26.3188 5.56135 26.7175 8.28864C26.9025 9.6136 27.2383 10.913 27.7182 12.1616C27.9035 12.7971 28.237 13.3954 28.4826 14.0169C28.7281 14.6385 29.1126 15.1997 29.4091 15.7888C29.7056 16.3778 30.1365 17.1339 30.521 17.8018C30.9055 18.4697 31.2159 19.2211 31.531 19.9586C32.139 21.4805 32.4276 23.1115 32.3788 24.75C32.3235 26.4165 31.9261 28.0538 31.2113 29.5599C30.5271 31.0695 29.3947 32.3312 27.9683 33.1731L27.607 32.8577C28.0817 30.2518 28.0927 27.5823 27.6394 24.9726C27.5838 24.6665 27.5282 24.365 27.4912 24.0449C27.4541 23.7249 27.3707 23.442 27.3244 23.1173C27.278 22.7926 27.241 22.5004 27.1715 22.1896L27.0232 21.262C26.9121 20.6311 26.7684 19.9911 26.6248 19.3463C26.4812 18.7016 26.231 18.1079 25.9901 17.4214C25.7492 16.735 25.4434 15.9743 25.2303 15.2322C25.0079 14.4939 24.8239 13.7446 24.679 12.9872C24.3971 11.4583 24.2883 9.90232 24.3547 8.34894C24.5956 5.26911 25.5639 2.22174 27.5977 0L27.9637 0.301489Z" fill="url(#paint0_linear_2532_3099)"/>
<path id="Vector_2" d="M66.3095 41.5545C66.3138 39.4819 65.7097 37.4537 64.5722 35.7219C63.4347 33.9902 61.8141 32.6313 59.9116 31.8141V25.4782C59.9116 22.7555 57.3775 20.7332 53.9677 20.7332H46.5923C43.1825 20.7332 40.653 22.7555 40.653 25.4782V75.5718C40.653 77.5894 39.5504 79.0876 36.8031 79.0876C26.3515 79.0876 17.6603 72.2322 17.6603 63.7812V22.2267C17.6603 21.3454 16.7801 20.7332 15.6775 20.7332C14.686 20.7332 13.8243 21.4336 13.8243 22.2267V63.7812C13.8243 73.7953 24.0582 82.1396 36.8217 82.1396C49.5851 82.1396 59.9301 74.1478 59.9301 63.7812V51.2578C61.8237 50.4408 63.4369 49.0865 64.5705 47.3622C65.7042 45.6378 66.3087 43.6189 66.3095 41.5545Z" fill="#55432F"/>
<path id="Vector_3" d="M18.4525 107.641C18.244 107.724 17.9892 107.836 17.7576 107.947C16.0118 108.674 14.135 109.032 12.2445 109C5.44356 109 0 104.57 0 99.2225C0 93.791 5.55938 89.4449 12.2445 89.4449C13.8617 89.4266 15.4699 89.6887 16.9978 90.2195L17.4843 90.3587C17.8484 90.4849 18.1966 90.653 18.522 90.8596C18.582 90.8989 18.632 90.9517 18.6682 91.0136C18.7044 91.0756 18.7257 91.1451 18.7305 91.2168C18.7305 91.4951 18.4525 91.6806 18.1051 91.6806C17.9714 91.674 17.8412 91.6359 17.7252 91.5693C15.9991 90.8036 14.1324 90.4071 12.2445 90.4051C9.12202 90.4051 5.51305 91.2632 5.51305 94.1992V104.227C5.51305 107.163 9.21931 108.021 12.2445 108.021C14.152 108.046 16.0408 107.642 17.7715 106.839C17.9007 106.771 18.043 106.733 18.1884 106.727C18.3376 106.712 18.4868 106.755 18.6039 106.849C18.721 106.943 18.7964 107.079 18.8139 107.228C18.8 107.423 18.6981 107.557 18.4525 107.641Z" fill="#55432F"/>
<path id="Vector_4" d="M39.0825 108.392C39.1195 108.42 39.1195 108.504 39.1195 108.638C39.1195 108.773 38.9435 108.889 38.7026 108.972C38.3227 109 38.1837 108.944 38.1142 108.833C38.05 108.773 37.9911 108.708 37.9381 108.638C37.9381 108.61 37.8687 108.42 37.7667 108.114C37.6648 107.808 37.4888 107.451 37.3498 107.061C37.2108 106.672 37.0023 106.134 36.7938 105.591C36.6793 105.283 36.457 105.028 36.1684 104.872C35.8485 104.704 35.4917 104.62 35.1307 104.626H30.2801C29.9177 104.62 29.5595 104.705 29.2377 104.872C28.9512 105.03 28.7297 105.285 28.6123 105.591L27.6857 108.142C27.5658 108.385 27.3774 108.589 27.1436 108.726C26.9098 108.864 26.6409 108.93 26.37 108.917H22.9278C22.727 108.929 22.526 108.896 22.3398 108.82C22.1536 108.744 21.9872 108.626 21.853 108.476C21.7266 108.362 21.639 108.211 21.6024 108.045C21.5659 107.878 21.5822 107.705 21.6492 107.548L28.0285 90.5674C28.1434 90.3268 28.3262 90.1252 28.5542 89.9875C28.7823 89.8499 29.0457 89.7822 29.3118 89.7928H31.0491C31.7394 89.7928 32.1935 90.0386 32.3649 90.5674L39.0825 108.392ZM35.1307 103.652C35.2334 103.656 35.3358 103.639 35.4315 103.602C35.5272 103.564 35.6141 103.507 35.6866 103.434C35.7507 103.37 35.7946 103.288 35.8127 103.199C35.8308 103.11 35.8224 103.017 35.7885 102.933L33.3934 96.5369C33.3333 96.408 33.2344 96.3011 33.1106 96.2312C32.9869 96.1614 32.8443 96.132 32.7031 96.1473C32.5661 96.1366 32.4291 96.1682 32.3107 96.2379C32.1922 96.3076 32.098 96.4119 32.0406 96.5369L29.65 102.933C29.6161 103.017 29.6077 103.11 29.6258 103.199C29.644 103.288 29.6878 103.37 29.752 103.434C29.8245 103.507 29.9113 103.564 30.007 103.602C30.1027 103.639 30.2052 103.656 30.3079 103.652H35.1307Z" fill="#55432F"/>
<path id="Vector_5" d="M47.5281 107.395C47.5281 108.281 46.6942 108.944 45.5869 108.944H43.4327C42.3579 108.944 41.524 108.281 41.524 107.423V91.3003C41.524 90.4422 42.3579 89.7789 43.4327 89.7789H55.1259C55.2898 89.7797 55.4503 89.8263 55.5892 89.9134C55.6411 89.959 55.6834 90.0144 55.7136 90.0765C55.7439 90.1387 55.7614 90.2062 55.7652 90.2752C55.7642 90.3408 55.7477 90.4052 55.7171 90.4632C55.6865 90.5213 55.6427 90.5713 55.5892 90.6092C55.4517 90.6998 55.2906 90.7482 55.1259 90.7483H49.1032C48.1998 90.7483 47.542 91.2724 47.542 91.9914V98.0212C47.542 98.7401 48.1998 99.2689 49.1032 99.2689H52.9531C53.1039 99.2664 53.251 99.3155 53.3701 99.408C53.4138 99.451 53.4487 99.5022 53.4725 99.5587C53.4964 99.6152 53.5088 99.676 53.5091 99.7373C53.5091 100.043 53.333 100.201 52.9531 100.201H49.0893C48.1859 100.201 47.5281 100.73 47.5281 101.449V107.395Z" fill="#55432F"/>
<path id="Vector_6" d="M60.8845 108.972C59.8097 108.972 59.0314 108.281 59.0314 107.451V91.3281C59.0314 90.4978 59.8282 89.8067 60.8845 89.8067H73.3931C73.5433 89.8033 73.6902 89.8507 73.8101 89.9412C73.912 90.035 73.9734 90.1647 73.9815 90.303C73.9587 90.4398 73.8858 90.5632 73.777 90.649C73.6682 90.7348 73.5313 90.7768 73.3931 90.7668H66.1937C65.891 90.748 65.5926 90.8459 65.3598 91.0405C65.2534 91.1165 65.1665 91.2167 65.1061 91.3328C65.0457 91.4488 65.0136 91.5776 65.0123 91.7084V98.3319C65.0136 98.4621 65.0457 98.5902 65.1061 98.7055C65.1665 98.8209 65.2535 98.9201 65.3598 98.9952C65.5909 99.1932 65.8901 99.293 66.1937 99.2735H70.391C70.7385 99.3291 70.9794 99.4405 70.9794 99.7373C70.9567 99.8741 70.8838 99.9975 70.7749 100.083C70.6661 100.169 70.5292 100.211 70.391 100.201H66.1937C65.8901 100.182 65.5909 100.281 65.3598 100.479C65.2535 100.554 65.1665 100.654 65.1061 100.769C65.0457 100.884 65.0136 101.012 65.0123 101.143V107.043C65.0132 107.173 65.0452 107.301 65.1056 107.417C65.1661 107.532 65.2532 107.631 65.3598 107.706C65.5909 107.904 65.8901 108.004 66.1937 107.984H73.407C73.5452 107.974 73.6821 108.016 73.7909 108.102C73.8997 108.188 73.9726 108.311 73.9954 108.448C73.9908 108.52 73.9717 108.59 73.9393 108.654C73.907 108.718 73.8619 108.776 73.807 108.822C73.752 108.868 73.6882 108.903 73.6195 108.924C73.5508 108.945 73.4785 108.952 73.407 108.944L60.8845 108.972Z" fill="#55432F"/>
</g>
<defs>
<linearGradient id="paint0_linear_2532_3099" x1="24.3408" y1="16.5819" x2="32.4158" y2="16.5819" gradientUnits="userSpaceOnUse">
<stop stop-color="#E86724"/>
<stop offset="1" stop-color="#FCB415"/>
</linearGradient>
<clipPath id="clip0_2532_3099">
<rect width="74" height="109" fill="white"/>
</clipPath>
</defs>
</svg>
